<?xml version="1.0" standalone="no"?><!DOCTYPE svg PUBLIC "-//W3C//DTD SVG 1.1//EN" "http://www.w3.org/Graphics/SVG/1.1/DTD/svg11.dtd"><svg t="1608630447304" class="icon" viewBox="0 0 1024 1024" version="1.1" xmlns="http://www.w3.org/2000/svg" p-id="45721" width="500" height="500" xmlns:xlink="http://www.w3.org/1999/xlink"><defs><style type="text/css"></style></defs><path d="M322.792727 327.447273c32.116364-17.454545 52.363636-11.636364 61.207273 17.454545 0 26.298182-17.454545 47.941818-52.363636 65.396364-32.116364 20.48-49.570909 62.603636-52.363636 126.603636-3.025455 23.272727-5.818182 59.810909-8.843636 109.149091-3.025455 20.48-4.421818 39.330909-4.421818 56.785455 0 8.843636-1.396364 20.48-4.421818 34.909091l0 17.454545c2.792727 20.48 2.792727 37.934545 0 52.363636-3.025455 5.818182-4.421818 14.661818-4.421818 26.298182-3.025455 8.843636-4.421818 14.661818-4.421818 17.454545-3.025455 20.247273-13.032727 33.512727-30.487273 39.330909-11.636364-3.025455-21.876364-17.454545-30.487273-43.752727-8.843636-37.701818-10.24-68.421818-4.421818-91.694545 5.818182-20.247273 8.843636-45.149091 8.843636-74.24 0-26.298182 0-68.421818 0-126.603636-3.025455-17.454545-13.032727-20.247273-30.487273-8.843636-43.752727 40.727273-80.058182 59.810909-109.149091 56.785455-37.934545-11.636364-52.363636-50.967273-43.752727-117.992727 2.792727-20.247273 11.636364-26.298182 26.298182-17.454545 2.792727 5.818182 14.429091 1.396364 34.909091-13.032727 84.48-49.570909 145.454545-81.454545 183.389091-96.116364C283.461818 349.323636 305.338182 339.316364 322.792727 327.447273zM466.850909 91.694545c40.727273 11.636364 69.818182 33.512727 87.272727 65.396364 5.818182 20.48 69.818182 32.116364 192.232727 34.909091 55.156364 5.818182 103.330909 19.083636 144.058182 39.330909-3.025455 17.454545-13.032727 34.909091-30.487273 52.363636-34.909091 8.843636-71.447273 7.214545-109.149091-4.421818-55.389091-14.429091-120.785455-21.876364-196.421818-21.876364-8.843636 3.025455-27.694545 4.421818-56.785455 4.421818-23.272727 0-47.941818 0-74.24 0-52.363636 0-106.356364 10.24-161.512727 30.487273-34.909091 14.661818-77.265455 23.272727-126.603636 26.298182-26.298182 0-42.123636-11.636364-47.941818-34.909091-3.025455-34.909091 8.843636-50.967273 34.909091-47.941818 8.843636 8.843636 40.727273 3.025455 96.116364-17.454545 40.727273-14.429091 85.876364-23.272727 135.447273-26.298182 32.116364-5.818182 56.785455-21.876364 74.24-47.941818C430.312727 112.174545 443.578182 94.72 466.850909 91.694545zM602.298182 305.803636c26.298182-23.272727 49.570909-21.876364 69.818182 4.421818 2.792727 29.090909-18.850909 56.785455-65.396364 83.083636-23.272727 14.661818-29.090909 24.669091-17.454545 30.487273 8.843636 8.843636 24.669091 23.272727 47.941818 43.752727 11.636364 8.843636 20.247273 14.661818 26.298182 17.454545 14.429091 11.636364 27.694545 1.396364 39.330909-30.487273-26.298182-34.909091-40.727273-62.603636-43.752727-83.083636 5.818182-14.429091 21.876364-16.058182 47.941818-4.421818 34.909091 23.272727 62.603636 30.487273 83.083636 21.876364 32.116364-11.636364 53.76-5.818182 65.396364 17.454545-8.843636 26.298182-24.669091 47.941818-47.941818 65.396364-37.934545 29.090909-69.818182 58.181818-96.116364 87.272727-23.272727 26.298182-45.149091 49.570909-65.396364 69.818182-5.818182 14.661818-5.818182 24.669091 0 30.487273 23.272727 14.661818 49.570909 33.512727 78.661818 56.785455 29.090909 26.298182 72.843636 45.149091 131.025455 56.785455 26.298182 8.843636 50.967273 17.454545 74.24 26.298182 20.247273 14.661818 40.727273 19.083636 61.207273 13.032727 11.636364 0 18.850909 3.025455 21.876364 8.843636 2.792727 5.818182 0 13.032727-8.843636 21.876364-87.272727 75.636364-163.141818 103.330909-227.141818 83.083636-34.909091-14.661818-62.603636-33.512727-83.083636-56.785455-34.909091-55.156364-71.447273-103.330909-109.149091-144.058182-11.636364-11.636364-21.876364-11.636364-30.487273 0-58.181818 67.025455-110.778182 109.149091-157.090909 126.603636-52.363636 14.661818-85.876364 4.421818-100.538182-30.487273-5.818182-14.429091-10.24-30.487273-13.032727-47.941818-3.025455-14.429091-3.025455-24.669091 0-30.487273 0-5.818182 1.396364-10.24 4.421818-13.032727 2.792727 0 5.818182 3.025455 8.843636 8.843636 14.429091 34.909091 33.512727 47.941818 56.785455 39.330909 32.116364-11.636364 65.396364-33.512727 100.538182-65.396364 11.636364-11.636364 26.298182-24.669091 43.752727-39.330909 2.792727-2.792727 5.818182-5.818182 8.843636-8.843636 5.818182-14.429091 1.396364-27.694545-13.032727-39.330909-26.298182-11.636364-42.123636-23.272727-47.941818-34.909091-23.272727-14.429091-47.941818-20.247273-74.24-17.454545-20.48 11.636364-40.727273 5.818182-61.207273-17.454545-17.454545-11.636364-8.843636-30.487273 26.298182-56.785455 32.116364-17.454545 69.818182-45.149091 113.570909-83.083636 2.792727 0 7.214545-2.792727 13.032727-8.843636 34.909091-26.298182 56.785455-40.727273 65.396364-43.752727C568.785455 342.109091 593.454545 323.258182 602.298182 305.803636zM519.214545 480.349091c-29.090909 3.025455-46.545455 14.661818-52.363636 34.909091 37.701818 26.298182 69.818182 50.967273 96.116364 74.24 14.429091 3.025455 27.694545-7.214545 39.330909-30.487273C572.974545 521.076364 545.512727 495.010909 519.214545 480.349091z" p-id="45722"></path></svg>